<svg xmlns="http://www.w3.org/2000/svg" xmlns:xlink="http://www.w3.org/1999/xlink" viewBox="6852.551 48.531 154.898 121.15">
  <defs>
    <style>
      .cls-1 {
        fill: #fff;
        fill-rule: evenodd;
      }

      .cls-2 {
        clip-path: url(#clip-path);
      }

      .cls-3 {
        clip-path: url(#clip-path-2);
      }
    </style>
    <clipPath id="clip-path">
      <path id="Path_226" data-name="Path 226" d="M61.54,38.079C71,31.362,71.821,19.71,66.2,9.567A18.9,18.9,0,0,0,50.711,2.3,19.027,19.027,0,0,0,35.633,9.7c-3.7,4.661-3.838,8.773-4.8,14.53l-.411,3.016c-.137.411.137.137-.137.411l-2.467-6.306c-2.193-5.62-3.7-9.733-10.144-11.515A13.077,13.077,0,0,0,3.008,16.283,13.529,13.529,0,0,0,1.5,23.137C1.637,27.8,4.653,31.088,7.806,34.1,10,36.3,28.779,56.31,30.972,57.133a6.8,6.8,0,0,0,4.935-.274c6.717-3.7,18.369-13.3,25.634-18.78Zm0,0" transform="translate(-1.5 -2.296)"/>
    </clipPath>
    <clipPath id="clip-path-2">
      <rect id="Rectangle_297" data-name="Rectangle 297" width="68.402" height="55.106" transform="translate(0 0.718) rotate(-0.602)"/>
    </clipPath>
  </defs>
  <g id="meetapp_logo" transform="translate(6851.051 46.269)">
    <path id="Path_216" data-name="Path 216" class="cls-1" d="M72.116,16.7c-11.1,0-17.409,5.894-18.094,15.49C53.2,43.019,58.683,49.736,69.238,50.284c8.636.411,16.038-3.838,16.312-10.829.137-3.838-5.894.274-11.652.822-4.935.411-11.378-5.346-1.371-4.524,6.717.548,13.3-1.782,14.256-7.128,1.371-8.5-5.346-11.926-14.667-11.926ZM66.907,28.078c-.822-10.692,15.353-6.031,3.564,1.1-1.234.822-3.427,1.234-3.564-1.1Zm0,0" transform="translate(19.444 5.353)"/>
    <path id="Path_217" data-name="Path 217" class="cls-1" d="M88.584,23.348c-8.088,2.193-10.966,9.184-9.6,16.175,1.508,8.088,6.717,11.789,14.53,10.144,5.757-1.234,10.007-5.072,9.87-9.6-.137-3.427-.822-3.427-3.29-1.1a7.972,7.972,0,0,1-8.088,1.782c-2.33-1.1-1.645-1.782.411-1.508,6.169.822,9.733-4.8,9.458-8.636-.685-6.443-6.58-9.047-13.3-7.265ZM87.9,31.71c.548-6.58,10.418-2.742,3.564,2.6-1.508,1.371-3.975,2.056-3.564-2.6Zm0,0" transform="translate(28.61 7.615)"/>
    <path id="Path_218" data-name="Path 218" class="cls-1" d="M115.856,33.478l1.782-4.387c1.1-2.742,1.234-3.564-2.6-4.387-3.7-.822-7.4-.411-8.362,1.919l-1.1,2.742-2.6-.822c-1.234.274-3.153,4.249-3.29,6.169l3.153,1.1L97.762,47.734c-2.193,5.346-.548,8.636,3.838,10.144,5.209,1.782,8.91,1.782,10.966-3.838.411-2.33-1.782-1.371-2.742-1.371-3.29.274-1.645-1.234-.274-4.249l3.838-9.047,4.387,1.508c1.234-.274,3.29-4.524,3.29-6.169Zm0,0" transform="translate(35.334 8.177)"/>
    <path id="Path_219" data-name="Path 219" class="cls-1" d="M34.873,84.781l8.362-1.919c2.6,7.813,7.4,15.079,13.982,12.885C71.473,90.675,46.8,45.3,32.269,46.81c-12.2,1.234-22.892,25.771-19.054,44.413,3.29,16.038,14.119,15.079,19.054,10.692,3.838-3.427,2.467-12.063,2.6-17.135Zm2.33-7.4c-3.427.822-3.427-1.645-3.427-3.564-.137-3.29.274-6.169,1.782-6.717,1.234-.274,2.6,1.508,3.838,4.249,2.056,4.8.274,5.483-2.193,6.031Zm0,0" transform="translate(4.049 16.504)"/>
    <path id="Path_220" data-name="Path 220" class="cls-1" d="M64.865,66.367c-.411-10.692-13.16-11.24-13.845-5.483-.548,4.524,2.056,4.387,3.838,3.975l-3.29,29.746c-1.234,9.047,4.387,9.458,8.225,7.4,3.7-2.056,4.249-12.063,4.8-16.586,1.371,4.935,16.175,9.184,19.876-10.144.822-4.661.548-9.047-.822-12.337-2.467-5.483-8.088-6.306-13.16-3.975a9.1,9.1,0,0,0-5.62,7.4Zm4.8,4.935c.822-5.209,6.717-7.4,4.661,3.838-.411,2.6-6.58,7.676-4.661-3.838Zm0,0" transform="translate(18.334 20.387)"/>
    <path id="Path_221" data-name="Path 221" class="cls-1" d="M88.924,57.053C87.69,47.32,76.039,47.869,75.9,53.078c-.137,4.112,2.193,3.838,3.7,3.29L78.78,83.646c-.411,8.362,4.8,8.225,7.951,6.169,3.29-2.193,3.016-11.24,3.153-15.49,1.508,4.386,15.49,7.265,17.272-10.692.411-4.249-.137-8.362-1.645-11.1-2.6-4.935-7.813-5.072-12.2-2.6a8.383,8.383,0,0,0-4.387,7.128Zm4.661,4.112c.411-4.8,5.483-7.265,4.524,3.153-.137,2.33-5.346,7.539-4.524-3.153Zm0,0" transform="translate(27.585 17.09)"/>
    <path id="Path_222" data-name="Path 222" class="cls-1" d="M67.288,49.414c1.782-1.1,3.153-1.371,4.8-.274a3.911,3.911,0,0,1,1.1,5.346c-1.371,2.056-4.112,3.29-7.4,4.112-5.757,1.508-6.717,1.919-7.676-3.7-.548-3.564-.685-6.854.822-9.047,2.742-4.112,9.6-1.508,8.362,3.564Zm0,0" transform="translate(20.846 15.408)"/>
    <path id="Path_223" data-name="Path 223" class="cls-1" d="M25.3,30c3.975,8.773,7.813,17.546,11.789,26.319,2.056,4.661,3.838,9.6,6.991,12.063A12.9,12.9,0,0,0,47.1,70.031a12.643,12.643,0,0,0,9.733-.411,7.772,7.772,0,0,0,1.782-1.1c3.29-2.33,5.072-5.483,5.072-11.1-.137-10.966-.411-40.027-4.935-46.744a21.812,21.812,0,0,0-2.742-3.29,19.7,19.7,0,0,0-3.427-2.467c-.548-.274-.96-.548-1.508-.822a19.029,19.029,0,0,0-16.586.137,20.174,20.174,0,0,0-7.539,6.443A19.411,19.411,0,0,0,25.3,30Zm0,0" transform="translate(8.139 0)"/>
    <path id="Path_224" data-name="Path 224" class="cls-1" d="M1.5,19.937c0,1.508.274,3.016.274,4.524.274,5.894,1.234,13.845,1.782,20.013.411,3.153.685,12.474,1.371,14.53a5.84,5.84,0,0,0,2.056,2.742,3.436,3.436,0,0,0,.96.548A5.993,5.993,0,0,0,16.3,59.141l4.524-15.627c1.645-5.62,3.29-11.377,4.935-17C27.956,19.389,27.545,15.688,23.3,11.3a13.147,13.147,0,0,0-9.6-3.7h-.274a13.652,13.652,0,0,0-6.58,2.33L5.2,11.3c-1.371,1.508-3.7,4.8-3.7,8.636Zm0,0" transform="translate(0 1.979)"/>
    <g id="Group_264" data-name="Group 264" class="cls-2" transform="translate(1.5 2.309)">
      <g id="Group_263" data-name="Group 263" class="cls-3" transform="translate(-0.288 -0.352)">
        <path id="Path_225" data-name="Path 225" class="cls-1" d="M76.49,60.589l-75.8.822L0,.822,75.8,0Z" transform="translate(-1.769 -2.796)"/>
      </g>
    </g>
  </g>
</svg>
