<svg xmlns="http://www.w3.org/2000/svg" viewBox="6183 227 1505 104">
  <defs>
    <style>
      .cls-1 {
        fill: #fff;
      }

      .cls-2 {
        fill: #242424;
        stroke: rgba(0,0,0,0);
      }
    </style>
  </defs>
  <g id="title" transform="translate(5970)">
    <rect id="Rectangle_301" data-name="Rectangle 301" class="cls-1" width="1505" height="104" rx="52" transform="translate(213 227)"/>
    <path id="Path_9835" data-name="Path 9835" class="cls-2" d="M-656.62-24.32a14.211,14.211,0,0,0-4,10.32,14.3,14.3,0,0,0,4,10.36A13.451,13.451,0,0,0-646.54.48,13.362,13.362,0,0,0-636.5-3.64,14.336,14.336,0,0,0-632.46-14a14.243,14.243,0,0,0-4.04-10.32,13.4,13.4,0,0,0-10.04-4.16A13.484,13.484,0,0,0-656.62-24.32Zm2.2,18.68a11.728,11.728,0,0,1-3.2-8.36,11.728,11.728,0,0,1,3.2-8.36,10.433,10.433,0,0,1,7.88-3.36,10.433,10.433,0,0,1,7.88,3.36,11.728,11.728,0,0,1,3.2,8.36,11.728,11.728,0,0,1-3.2,8.36,10.433,10.433,0,0,1-7.88,3.36A10.433,10.433,0,0,1-654.42-5.64ZM-618.7,0V-16.8h7v-2.52h-16.88v2.52h7V0Zm14.32,0V-16.8h11.6V0h2.88V-19.32h-17.36V0Zm24.16-3.08A8.88,8.88,0,0,0-572.74.48a9.123,9.123,0,0,0,7-2.96,10.27,10.27,0,0,0,2.72-7.2,10.241,10.241,0,0,0-2.72-7.16,9.123,9.123,0,0,0-7-2.96,8.88,8.88,0,0,0-7.48,3.56v-3.08h-2.88V8h2.88Zm0-9.76a7.657,7.657,0,0,1,6.8-4.36,7.146,7.146,0,0,1,5.32,2.16,7.425,7.425,0,0,1,2.12,5.36,7.586,7.586,0,0,1-2.12,5.4,7.146,7.146,0,0,1-5.32,2.16,7.542,7.542,0,0,1-6.8-4.36Zm29.08,10.72c-3,0-5.28-1.36-5.28-3.96,0-2.4,2.2-3.88,5.72-3.88a11.347,11.347,0,0,1,6.28,1.92v2.68A8.917,8.917,0,0,1-551.14-2.12Zm-.8,2.6a9.76,9.76,0,0,0,7.8-3.4A3.405,3.405,0,0,0-540.5.16a3.4,3.4,0,0,0,1.92-.44V-2.52a2.435,2.435,0,0,1-1.12.24c-1.12,0-1.84-.92-1.84-2.4v-7.96c0-4.68-3.48-7.16-8.64-7.16a12.88,12.88,0,0,0-6.92,1.76v2.8a11.02,11.02,0,0,1,6.32-1.96c4.24,0,6.36,1.6,6.36,4.84v1.92a13.556,13.556,0,0,0-6.96-1.88,9.053,9.053,0,0,0-5.68,1.72,5.655,5.655,0,0,0-2.24,4.68,5.8,5.8,0,0,0,2.12,4.72A8.3,8.3,0,0,0-551.94.48ZM-523.06,0c4.12,0,6.44-2,6.44-5.2a4.706,4.706,0,0,0-3.68-4.96,4.247,4.247,0,0,0,2.4-4.24c0-2.92-2.12-4.92-5.84-4.92H-533.9V0Zm-7.96-8.72h7.36c2.6,0,4.12,1.16,4.12,3.12s-1.52,3.08-4.12,3.08h-7.36Zm0-8.08h6.48c2.4,0,3.8.96,3.8,2.84,0,1.8-1.4,2.84-3.8,2.84h-6.48ZM-513.66,0a4.866,4.866,0,0,0,.84.04c3.04.16,4.92-1.92,5.8-4.24a21.052,21.052,0,0,0,1.16-5.76c.08-.88.12-1.92.16-3.12l.12-3.72h8.8V0h2.88V-19.32h-14.44l-.16,6.16a28.1,28.1,0,0,1-.96,7.36c-.6,2.08-1.72,3.2-3.44,3.2a4.126,4.126,0,0,1-.76-.04Zm28.32,0,5.4-7.2h6.2V0h2.88V-19.32h-9.96c-4.48,0-6.92,2.4-6.92,5.88a5.4,5.4,0,0,0,4.88,5.72L-488.62,0Zm4.96-9.72c-2.84,0-4.4-1.24-4.4-3.52s1.56-3.56,4.4-3.56h6.64v7.08Zm19,9.72,12.36-15.04V0h2.88V-19.32h-2.68L-461.18-4.24V-19.32h-2.88V0Zm6.32-22.6c3.68,0,6.4-2.4,6.44-6.08h-2.52a3.711,3.711,0,0,1-3.96,3.76,3.667,3.667,0,0,1-3.96-3.76h-2.56C-461.58-25-458.94-22.6-455.06-22.6ZM-431.82,0V-16.8h7v-2.52H-441.7v2.52h7V0Zm20.16.48c2.92,0,5.16-.6,6.76-1.84V-3.92a11.325,11.325,0,0,1-6.2,1.8c-4.64,0-7.92-2.68-8.24-6.84h15.88v-.8c0-4.36-2.56-10.04-9.04-10.04a9.263,9.263,0,0,0-7.08,2.92,10.164,10.164,0,0,0-2.72,7.24,9.453,9.453,0,0,0,3.04,7.28A10.851,10.851,0,0,0-411.66.48Zm-7.64-11.8a6.362,6.362,0,0,1,1.96-4.12,6.5,6.5,0,0,1,4.72-1.76,5.5,5.5,0,0,1,4.56,1.84,6.6,6.6,0,0,1,1.68,4.04ZM-378.62.48a11.9,11.9,0,0,0,6.24-1.64V-3.8a10.366,10.366,0,0,1-5.8,1.68,7.833,7.833,0,0,1-5.56-2.12,7.208,7.208,0,0,1-2.2-5.4,7.087,7.087,0,0,1,2.2-5.4,7.7,7.7,0,0,1,5.56-2.16,10.816,10.816,0,0,1,5.44,1.48V-18.4a11.791,11.791,0,0,0-5.84-1.4,10.01,10.01,0,0,0-7.36,2.92,9.682,9.682,0,0,0-2.96,7.2,9.829,9.829,0,0,0,2.92,7.28A10.137,10.137,0,0,0-378.62.48ZM-355.7,0c4.12,0,6.44-2,6.44-5.2a4.706,4.706,0,0,0-3.68-4.96,4.247,4.247,0,0,0,2.4-4.24c0-2.92-2.12-4.92-5.84-4.92h-10.16V0Zm-7.96-8.72h7.36c2.6,0,4.12,1.16,4.12,3.12s-1.52,3.08-4.12,3.08h-7.36Zm0-8.08h6.48c2.4,0,3.8.96,3.8,2.84,0,1.8-1.4,2.84-3.8,2.84h-6.48Zm21.72,0a9.748,9.748,0,0,0-2.92,7.16,9.748,9.748,0,0,0,2.92,7.16A10.156,10.156,0,0,0-334.42.48a10.156,10.156,0,0,0,7.52-2.96,9.748,9.748,0,0,0,2.92-7.16,9.748,9.748,0,0,0-2.92-7.16,10.034,10.034,0,0,0-7.52-3A10.034,10.034,0,0,0-341.94-16.8Zm15,7.16a7.425,7.425,0,0,1-2.12,5.36,7.173,7.173,0,0,1-5.36,2.16,7.174,7.174,0,0,1-5.36-2.16,7.425,7.425,0,0,1-2.12-5.36,7.453,7.453,0,0,1,2.12-5.4,7.174,7.174,0,0,1,5.36-2.16,7.173,7.173,0,0,1,5.36,2.16A7.453,7.453,0,0,1-326.94-9.64Zm11,9.64,12.36-15.04V0h2.88V-19.32h-2.68L-315.74-4.24V-19.32h-2.88V0Zm43.44,0c4.12,0,6.44-2,6.44-5.2a4.706,4.706,0,0,0-3.68-4.96,4.247,4.247,0,0,0,2.4-4.24c0-2.92-2.12-4.92-5.84-4.92h-10.16V0Zm-7.96-8.72h7.36c2.6,0,4.12,1.16,4.12,3.12s-1.52,3.08-4.12,3.08h-7.36Zm0-8.08h6.48c2.4,0,3.8.96,3.8,2.84,0,1.8-1.4,2.84-3.8,2.84h-6.48Zm26.72,14.68c-3,0-5.28-1.36-5.28-3.96,0-2.4,2.2-3.88,5.72-3.88a11.347,11.347,0,0,1,6.28,1.92v2.68A8.917,8.917,0,0,1-253.74-2.12Zm-.8,2.6a9.76,9.76,0,0,0,7.8-3.4A3.405,3.405,0,0,0-243.1.16a3.4,3.4,0,0,0,1.92-.44V-2.52a2.435,2.435,0,0,1-1.12.24c-1.12,0-1.84-.92-1.84-2.4v-7.96c0-4.68-3.48-7.16-8.64-7.16a12.88,12.88,0,0,0-6.92,1.76v2.8a11.02,11.02,0,0,1,6.32-1.96c4.24,0,6.36,1.6,6.36,4.84v1.92a13.556,13.556,0,0,0-6.96-1.88,9.053,9.053,0,0,0-5.68,1.72,5.655,5.655,0,0,0-2.24,4.68,5.8,5.8,0,0,0,2.12,4.72A8.3,8.3,0,0,0-254.54.48ZM-239.06,0a4.867,4.867,0,0,0,.84.04c3.04.16,4.92-1.92,5.8-4.24a21.052,21.052,0,0,0,1.16-5.76c.08-.88.12-1.92.16-3.12l.12-3.72h8.8V0h2.88V-19.32h-14.44l-.16,6.16a28.1,28.1,0,0,1-.96,7.36c-.6,2.08-1.72,3.2-3.44,3.2a4.127,4.127,0,0,1-.76-.04Zm35.8.48c2.92,0,5.16-.6,6.76-1.84V-3.92a11.325,11.325,0,0,1-6.2,1.8c-4.64,0-7.92-2.68-8.24-6.84h15.88v-.8c0-4.36-2.56-10.04-9.04-10.04a9.263,9.263,0,0,0-7.08,2.92,10.164,10.164,0,0,0-2.72,7.24,9.453,9.453,0,0,0,3.04,7.28A10.851,10.851,0,0,0-203.26.48Zm-7.64-11.8a6.362,6.362,0,0,1,1.96-4.12,6.5,6.5,0,0,1,4.72-1.76,5.5,5.5,0,0,1,4.56,1.84,6.6,6.6,0,0,1,1.68,4.04ZM-186.78,0V-8.6h11.88V0h2.88V-19.32h-2.88v8.12h-11.88v-8.12h-2.88V0Zm29.08,0V-16.8h7v-2.52h-16.88v2.52h7V0Zm14.12,0,12.36-15.04V0h2.88V-19.32h-2.68L-143.38-4.24V-19.32h-2.88V0Zm24.92,0V-8.6h11.88V0h2.88V-19.32h-2.88v8.12h-11.88v-8.12h-2.88V0ZM-97.1-19.32V0h2.88V-9.52L-83.78,0h4.12L-91.3-10.6l10.2-8.72h-3.92l-9.2,7.96v-7.96ZM-72.78,0l12.36-15.04V0h2.88V-19.32h-2.68L-72.58-4.24V-19.32h-2.88V0ZM-37.3,0V-8.6h11.88V0h2.88V-19.32h-2.88v8.12H-37.3v-8.12h-2.88V0ZM-9.22-2.12c-3,0-5.28-1.36-5.28-3.96,0-2.4,2.2-3.88,5.72-3.88A11.347,11.347,0,0,1-2.5-8.04v2.68A8.917,8.917,0,0,1-9.22-2.12Zm-.8,2.6a9.76,9.76,0,0,0,7.8-3.4A3.405,3.405,0,0,0,1.42.16,3.4,3.4,0,0,0,3.34-.28V-2.52a2.435,2.435,0,0,1-1.12.24C1.1-2.28.38-3.2.38-4.68v-7.96c0-4.68-3.48-7.16-8.64-7.16a12.88,12.88,0,0,0-6.92,1.76v2.8A11.02,11.02,0,0,1-8.86-17.2c4.24,0,6.36,1.6,6.36,4.84v1.92a13.556,13.556,0,0,0-6.96-1.88,9.053,9.053,0,0,0-5.68,1.72,5.655,5.655,0,0,0-2.24,4.68A5.8,5.8,0,0,0-15.26-1.2,8.3,8.3,0,0,0-10.02.48ZM27.5.16l4.12-12.04L35.78.16h4.88L47.5-19.96H41.9L38.02-8.08,33.98-20.04H29.46L25.54-8.08,21.58-19.96H15.94L22.7.16Zm33.08,0L64.7-11.88,68.86.16h4.88l6.84-20.12h-5.6L71.1-8.08,67.06-20.04H62.54L58.62-8.08,54.66-19.96H49.02L55.78.16Zm33.08,0,4.12-12.04L101.94.16h4.88l6.84-20.12h-5.6L104.18-8.08l-4.04-11.96H95.62L91.7-8.08,87.74-19.96H82.1L88.86.16Zm23.16.28a3.491,3.491,0,0,0,3.48-3.52,3.449,3.449,0,0,0-3.48-3.44,3.424,3.424,0,0,0-3.48,3.44A3.466,3.466,0,0,0,116.82.44ZM130.46,0V-12.68a5.143,5.143,0,0,1,4.2-2.64c2.2,0,3.32,1.36,3.32,4.12V0h5.64V-12.6a4.84,4.84,0,0,1,4.16-2.72c2.2,0,3.32,1.36,3.32,4.12V0h5.64V-12.48c0-5.24-2.84-8-7.12-8a8.458,8.458,0,0,0-6.88,3.4c-.84-1.88-3.2-3.4-6.2-3.4a7.238,7.238,0,0,0-6.08,2.96v-2.44h-5.64V0Zm41.16.52c3.28,0,5.8-.68,7.6-2.04V-6.04a12.753,12.753,0,0,1-6.4,1.76c-3.52,0-6.08-1.44-6.68-4.16h14.32V-9.92a11.2,11.2,0,0,0-2.6-7.48,8.568,8.568,0,0,0-6.92-3.08,9.857,9.857,0,0,0-7.52,3.04A10.325,10.325,0,0,0,160.54-10a9.843,9.843,0,0,0,3.2,7.64A11.326,11.326,0,0,0,171.62.52Zm-5.48-12.56a4.355,4.355,0,0,1,4.56-4,4.059,4.059,0,0,1,4.2,4ZM194.54.52c3.28,0,5.8-.68,7.6-2.04V-6.04a12.753,12.753,0,0,1-6.4,1.76c-3.52,0-6.08-1.44-6.68-4.16h14.32V-9.92a11.2,11.2,0,0,0-2.6-7.48,8.568,8.568,0,0,0-6.92-3.08,9.857,9.857,0,0,0-7.52,3.04A10.325,10.325,0,0,0,183.46-10a9.843,9.843,0,0,0,3.2,7.64A11.326,11.326,0,0,0,194.54.52Zm-5.48-12.56a4.355,4.355,0,0,1,4.56-4,4.059,4.059,0,0,1,4.2,4ZM209.58-6.2c0,4.48,2.16,6.72,6.52,6.72a8.924,8.924,0,0,0,4.76-1.08V-5.24a6.426,6.426,0,0,1-2.92.72c-1.92,0-2.72-.84-2.72-2.8v-7.92h5.68v-4.72h-5.68v-5.48h-5.64v5.48h-3.92v4.72h3.92Zm34.76,1.84c-.92,0-1.4-.52-1.4-1.52v-6.76a6.959,6.959,0,0,0-2.64-5.76,10.612,10.612,0,0,0-6.88-2.08,15.563,15.563,0,0,0-7.4,1.6v4.72a11.672,11.672,0,0,1,6.04-1.68c3.52,0,5.28,1.24,5.28,3.76v.6a12.247,12.247,0,0,0-5.76-1.24,9.252,9.252,0,0,0-5.56,1.68,5.634,5.634,0,0,0-2.32,4.88c0,4.04,3.04,6.68,7.36,6.68a9.188,9.188,0,0,0,6.88-2.72c.76,1.72,2.24,2.56,4.52,2.56a4.824,4.824,0,0,0,3.04-.84V-4.6A2.384,2.384,0,0,1,244.34-4.36Zm-7-1.52a5.362,5.362,0,0,1-4.52,2.04c-2.08,0-3.56-.84-3.56-2.6,0-1.64,1.52-2.6,3.92-2.6a7.368,7.368,0,0,1,4.16,1.16Zm24.28-14.6a7.736,7.736,0,0,0-6.56,2.96v-2.44h-5.64V8h5.64V-2.44A7.889,7.889,0,0,0,261.62.52a8.556,8.556,0,0,0,6.72-3,10.867,10.867,0,0,0,2.68-7.48,10.729,10.729,0,0,0-2.68-7.48A8.466,8.466,0,0,0,261.62-20.48Zm-1.6,4.92a5.07,5.07,0,0,1,3.88,1.6,5.659,5.659,0,0,1,1.52,4A5.631,5.631,0,0,1,263.9-6a5.07,5.07,0,0,1-3.88,1.6,5.61,5.61,0,0,1-4.96-2.96v-5.2A5.645,5.645,0,0,1,260.02-15.56Zm27.36-4.92a7.736,7.736,0,0,0-6.56,2.96v-2.44h-5.64V8h5.64V-2.44A7.889,7.889,0,0,0,287.38.52a8.556,8.556,0,0,0,6.72-3,10.867,10.867,0,0,0,2.68-7.48,10.729,10.729,0,0,0-2.68-7.48A8.466,8.466,0,0,0,287.38-20.48Zm-1.6,4.92a5.07,5.07,0,0,1,3.88,1.6,5.659,5.659,0,0,1,1.52,4A5.631,5.631,0,0,1,289.66-6a5.07,5.07,0,0,1-3.88,1.6,5.61,5.61,0,0,1-4.96-2.96v-5.2A5.645,5.645,0,0,1,285.78-15.56Zm16.88,16a3.491,3.491,0,0,0,3.48-3.52,3.449,3.449,0,0,0-3.48-3.44,3.424,3.424,0,0,0-3.48,3.44A3.466,3.466,0,0,0,302.66.44ZM316.3,0V-8.6L324.18,0h7.28L321.42-10.96l8.68-9h-6.92l-6.88,7.28V-28h-5.64V0Zm31.44-17.64a8.112,8.112,0,0,0-6.6-2.84,8.573,8.573,0,0,0-6.68,2.88,10.272,10.272,0,0,0-2.6,7.12,10.373,10.373,0,0,0,2.6,7.16,8.573,8.573,0,0,0,6.68,2.88,8.112,8.112,0,0,0,6.6-2.84v1.24c0,4.24-3.44,5.4-6.52,5.4a13.8,13.8,0,0,1-7.24-1.92V6.52a15.294,15.294,0,0,0,7.84,1.72c5.64,0,11.56-3.24,11.56-10.56V-19.96h-5.64ZM342.78-5.32a5.046,5.046,0,0,1-5.28-5.12,5,5,0,0,1,5.28-5.12,5.739,5.739,0,0,1,4.96,2.72v4.8A5.739,5.739,0,0,1,342.78-5.32Zm18,10.92,16.84-37.28h-5.64L355.14,5.6ZM390.5.16l8.68-20.12H393.3L388.06-7l-5.28-12.96H376.7L385.38.16Zm30.6-4.52c-.92,0-1.4-.52-1.4-1.52v-6.76a6.959,6.959,0,0,0-2.64-5.76,10.612,10.612,0,0,0-6.88-2.08,15.563,15.563,0,0,0-7.4,1.6v4.72a11.672,11.672,0,0,1,6.04-1.68c3.52,0,5.28,1.24,5.28,3.76v.6a12.247,12.247,0,0,0-5.76-1.24,9.252,9.252,0,0,0-5.56,1.68,5.634,5.634,0,0,0-2.32,4.88c0,4.04,3.04,6.68,7.36,6.68A9.188,9.188,0,0,0,414.7-2.2c.76,1.72,2.24,2.56,4.52,2.56a4.824,4.824,0,0,0,3.04-.84V-4.6A2.384,2.384,0,0,1,421.1-4.36Zm-7-1.52a5.362,5.362,0,0,1-4.52,2.04c-2.08,0-3.56-.84-3.56-2.6,0-1.64,1.52-2.6,3.92-2.6a7.368,7.368,0,0,1,4.16,1.16ZM431.5.52a7.953,7.953,0,0,0,3.56-.72V-4.84a2.748,2.748,0,0,1-1.44.36c-1.2,0-1.8-.68-1.8-2V-28h-5.64V-5C426.18-1,428.42.52,431.5.52Zm17.16,0c3.28,0,5.8-.68,7.6-2.04V-6.04a12.754,12.754,0,0,1-6.4,1.76c-3.52,0-6.08-1.44-6.68-4.16H457.5V-9.92a11.2,11.2,0,0,0-2.6-7.48,8.568,8.568,0,0,0-6.92-3.08,9.857,9.857,0,0,0-7.52,3.04A10.325,10.325,0,0,0,437.58-10a9.843,9.843,0,0,0,3.2,7.64A11.326,11.326,0,0,0,448.66.52Zm-5.48-12.56a4.355,4.355,0,0,1,4.56-4,4.059,4.059,0,0,1,4.2,4Zm24.28-.68a5.7,5.7,0,0,1,4.52-2.6c2.08,0,3.8,1.16,3.8,4.24V0h5.64V-12.24c0-5.12-2.64-8.24-7.28-8.24a8.649,8.649,0,0,0-6.68,2.92v-2.4h-5.64V0h5.64ZM488.42-6.2c0,4.48,2.16,6.72,6.52,6.72A8.924,8.924,0,0,0,499.7-.56V-5.24a6.426,6.426,0,0,1-2.92.72c-1.92,0-2.72-.84-2.72-2.8v-7.92h5.68v-4.72h-5.68v-5.48h-5.64v5.48H484.5v4.72h3.92ZM510.1,0V-19.96h-5.64V0Zm-6.2-25.24a3.329,3.329,0,0,0,3.36,3.36,3.329,3.329,0,0,0,3.36-3.36,3.338,3.338,0,0,0-3.36-3.4A3.338,3.338,0,0,0,503.9-25.24Zm17.64,12.52a5.7,5.7,0,0,1,4.52-2.6c2.08,0,3.8,1.16,3.8,4.24V0h5.64V-12.24c0-5.12-2.64-8.24-7.28-8.24a8.649,8.649,0,0,0-6.68,2.92v-2.4H515.9V0h5.64ZM550.38.52c3.28,0,5.8-.68,7.6-2.04V-6.04a12.753,12.753,0,0,1-6.4,1.76c-3.52,0-6.08-1.44-6.68-4.16h14.32V-9.92a11.2,11.2,0,0,0-2.6-7.48,8.568,8.568,0,0,0-6.92-3.08,9.857,9.857,0,0,0-7.52,3.04A10.325,10.325,0,0,0,539.3-10a9.843,9.843,0,0,0,3.2,7.64A11.326,11.326,0,0,0,550.38.52ZM544.9-12.04a4.355,4.355,0,0,1,4.56-4,4.059,4.059,0,0,1,4.2,4ZM566.06.44a3.491,3.491,0,0,0,3.48-3.52,3.449,3.449,0,0,0-3.48-3.44,3.424,3.424,0,0,0-3.48,3.44A3.466,3.466,0,0,0,566.06.44ZM579.7-12.72a5.7,5.7,0,0,1,4.52-2.6c2.08,0,3.8,1.16,3.8,4.24V0h5.64V-12.24c0-5.12-2.64-8.24-7.28-8.24a8.745,8.745,0,0,0-6.68,2.96V-28h-5.64V0h5.64ZM600.66-6.2c0,4.48,2.16,6.72,6.52,6.72a8.924,8.924,0,0,0,4.76-1.08V-5.24a6.426,6.426,0,0,1-2.92.72c-1.92,0-2.72-.84-2.72-2.8v-7.92h5.68v-4.72H606.3v-5.48h-5.64v5.48h-3.92v4.72h3.92ZM622.06,0V-12.68a5.143,5.143,0,0,1,4.2-2.64c2.2,0,3.32,1.36,3.32,4.12V0h5.64V-12.6a4.84,4.84,0,0,1,4.16-2.72c2.2,0,3.32,1.36,3.32,4.12V0h5.64V-12.48c0-5.24-2.84-8-7.12-8a8.458,8.458,0,0,0-6.88,3.4c-.84-1.88-3.2-3.4-6.2-3.4a7.238,7.238,0,0,0-6.08,2.96v-2.44h-5.64V0Zm36.72.52a7.953,7.953,0,0,0,3.56-.72V-4.84a2.748,2.748,0,0,1-1.44.36c-1.2,0-1.8-.68-1.8-2V-28h-5.64V-5C653.46-1,655.7.52,658.78.52Z" transform="translate(960 291)"/>
  </g>
</svg>
