<svg xmlns="http://www.w3.org/2000/svg" viewBox="6307 227 1257 104">
  <defs>
    <style>
      .cls-1 {
        fill: #fff;
      }

      .cls-2 {
        fill: #242424;
        stroke: rgba(0,0,0,0);
      }
    </style>
  </defs>
  <g id="title" transform="translate(5970)">
    <rect id="Rectangle_301" data-name="Rectangle 301" class="cls-1" width="1257" height="104" rx="52" transform="translate(337 227)"/>
    <path id="Path_9835" data-name="Path 9835" class="cls-2" d="M-475.254.468a13.12,13.12,0,0,1-9.984-4.134,14.025,14.025,0,0,1-3.9-9.984,13.969,13.969,0,0,1,3.939-9.965,13.213,13.213,0,0,1,10.023-4.153,13.12,13.12,0,0,1,9.984,4.134,14.025,14.025,0,0,1,3.9,9.984,13.969,13.969,0,0,1-3.939,9.964A13.213,13.213,0,0,1-475.254.468Zm.078-2.847a10,10,0,0,0,7.663-3.257,11.34,11.34,0,0,0,3.022-8.014,11.278,11.278,0,0,0-3.061-8,10.1,10.1,0,0,0-7.7-3.276,10,10,0,0,0-7.664,3.257,11.34,11.34,0,0,0-3.022,8.014,11.278,11.278,0,0,0,3.061,7.995A10.1,10.1,0,0,0-475.176-2.379ZM-450.411,0V-17.511h-7.215v-2.652h17.472v2.652h-7.215V0Zm14.625,0V-20.163h17.472V0h-3V-17.511h-11.466V0Zm24.18,6.24v-26.4h3v4.056q3.042-4.485,7.722-4.485a9.274,9.274,0,0,1,6.747,2.866,10.318,10.318,0,0,1,2.886,7.664,10.282,10.282,0,0,1-2.886,7.6A9.244,9.244,0,0,1-400.881.429a9.014,9.014,0,0,1-7.722-4.29V6.24Zm10.179-8.5a6.718,6.718,0,0,0,5.07-2.125,7.933,7.933,0,0,0,2.028-5.714,7.822,7.822,0,0,0-2.067-5.635,6.7,6.7,0,0,0-5.031-2.164,6.94,6.94,0,0,0-5.109,2.223,7.684,7.684,0,0,0-2.184,5.616,7.618,7.618,0,0,0,2.184,5.6A6.969,6.969,0,0,0-401.427-2.262ZM-379.7.429a8.555,8.555,0,0,1-5.3-1.677,5.528,5.528,0,0,1-2.223-4.68,5.686,5.686,0,0,1,2.34-4.875,10.392,10.392,0,0,1,6.279-1.716,22.6,22.6,0,0,1,6.162.858v-.624a5.175,5.175,0,0,0-1.56-4.056,6.361,6.361,0,0,0-4.407-1.4A14.7,14.7,0,0,0-384.54-16.3l-.9-2.457a17.519,17.519,0,0,1,7.332-1.716q4.29,0,6.513,2.223a8.015,8.015,0,0,1,2.106,5.928V0h-2.964V-3A8.737,8.737,0,0,1-379.7.429Zm.585-2.418a7.5,7.5,0,0,0,4.758-1.521,4.733,4.733,0,0,0,1.95-3.9V-9.282a21.1,21.1,0,0,0-5.889-.858,7.355,7.355,0,0,0-4.329,1.111,3.519,3.519,0,0,0-1.56,3.022,3.466,3.466,0,0,0,1.462,2.925A5.86,5.86,0,0,0-379.119-1.989ZM-363.129,0V-20.163h9.75a7.727,7.727,0,0,1,4.8,1.365,4.37,4.37,0,0,1,1.794,3.666,4.791,4.791,0,0,1-3.354,4.641Q-345.7-9.282-345.7-5.5a4.747,4.747,0,0,1-1.989,4.017A8.742,8.742,0,0,1-353.028,0Zm3-2.574h6.708a5.71,5.71,0,0,0,3.393-.9,2.9,2.9,0,0,0,1.248-2.5,2.575,2.575,0,0,0-1.306-2.3,7.035,7.035,0,0,0-3.725-.819h-6.318Zm0-8.931h6.2a4.837,4.837,0,0,0,2.983-.839,2.825,2.825,0,0,0,1.111-2.4,2.449,2.449,0,0,0-1.053-2.067,4.9,4.9,0,0,0-2.964-.78h-6.279ZM-341.25.312A9.957,9.957,0,0,1-343.668,0l.351-2.574a5.242,5.242,0,0,0,1.443.273,3.888,3.888,0,0,0,1.4-.214,3.022,3.022,0,0,0,1.19-1.131,7.059,7.059,0,0,0,.994-2.593,41.191,41.191,0,0,0,.6-4.758q.253-3.081.253-7.488v-1.677h14.274V0h-3V-17.511h-8.424v.468a74.276,74.276,0,0,1-.351,7.839,31.6,31.6,0,0,1-.878,5.07,6.98,6.98,0,0,1-1.462,2.847A4.552,4.552,0,0,1-339.086.02,6.915,6.915,0,0,1-341.25.312ZM-318.24,0l6.162-7.8a7.465,7.465,0,0,1-3.88-2.145,5.537,5.537,0,0,1-1.5-3.939,5.692,5.692,0,0,1,2.028-4.543,8.3,8.3,0,0,1,5.577-1.736h9.477V0h-3V-7.332h-5.577q-.351.468-2.418,3.2T-314.535,0Zm8.619-9.867h6.24v-7.644H-309.7a5.518,5.518,0,0,0-3.491.994,3.3,3.3,0,0,0-1.268,2.75,3.425,3.425,0,0,0,1.346,2.847A5.5,5.5,0,0,0-309.621-9.867ZM-293.67,0V-20.163h3V-4.212l11.973-15.951h2.925V0h-3V-15.951L-290.784,0Zm8.853-23.049a5.316,5.316,0,0,1-3.647-1.326,5.67,5.67,0,0,1-1.852-3.432l2.067-.429a3.323,3.323,0,0,0,3.432,2.73,3.323,3.323,0,0,0,3.432-2.73l2.067.429a5.67,5.67,0,0,1-1.852,3.432A5.316,5.316,0,0,1-284.817-23.049ZM-264.186,0V-17.511H-271.4v-2.652h17.472v2.652h-7.215V0Zm23.439.468A9.66,9.66,0,0,1-247.9-2.477a10.341,10.341,0,0,1-2.906-7.585,10.733,10.733,0,0,1,2.769-7.469,8.925,8.925,0,0,1,6.9-3.061,8.467,8.467,0,0,1,6.864,3.042,11.536,11.536,0,0,1,2.535,7.644q0,.585-.039,1.053h-15.99a7.317,7.317,0,0,0,2.321,4.894,6.889,6.889,0,0,0,4.777,1.813,8.548,8.548,0,0,0,6.357-2.847l1.872,1.677A10.736,10.736,0,0,1-240.747.468Zm-7.02-11.739h12.987a8.448,8.448,0,0,0-1.93-4.856,5.629,5.629,0,0,0-4.5-1.93,5.889,5.889,0,0,0-4.407,1.911A8.028,8.028,0,0,0-247.767-11.271ZM-205.686.468a9.8,9.8,0,0,1-7.352-3.1,10.337,10.337,0,0,1-2.983-7.429,10.337,10.337,0,0,1,2.983-7.43,9.8,9.8,0,0,1,7.352-3.1A10.738,10.738,0,0,1-197.613-17l-1.911,2.028a8.415,8.415,0,0,0-6.2-2.964,6.679,6.679,0,0,0-5.128,2.282,7.988,7.988,0,0,0-2.087,5.6A7.854,7.854,0,0,0-210.815-4.5a6.928,6.928,0,0,0,5.285,2.281,8.312,8.312,0,0,0,6.084-3.042l1.989,1.833A10.754,10.754,0,0,1-205.686.468ZM-192.5,0V-20.163h9.75a7.727,7.727,0,0,1,4.8,1.365,4.37,4.37,0,0,1,1.794,3.666,4.791,4.791,0,0,1-3.354,4.641q4.446,1.209,4.446,4.992a4.747,4.747,0,0,1-1.989,4.017A8.742,8.742,0,0,1-182.4,0Zm3-2.574h6.708a5.71,5.71,0,0,0,3.393-.9,2.9,2.9,0,0,0,1.248-2.5,2.575,2.575,0,0,0-1.306-2.3,7.035,7.035,0,0,0-3.725-.819H-189.5Zm0-8.931h6.2a4.837,4.837,0,0,0,2.984-.839,2.825,2.825,0,0,0,1.111-2.4,2.449,2.449,0,0,0-1.053-2.067,4.9,4.9,0,0,0-2.964-.78H-189.5ZM-160.446.468a9.966,9.966,0,0,1-7.469-3.081,10.317,10.317,0,0,1-2.983-7.449,10.267,10.267,0,0,1,3.022-7.43,10.061,10.061,0,0,1,7.508-3.1,10.03,10.03,0,0,1,7.488,3.081,10.282,10.282,0,0,1,3,7.449,10.233,10.233,0,0,1-3.042,7.429A10.125,10.125,0,0,1-160.446.468Zm.078-2.691a6.922,6.922,0,0,0,5.324-2.262,7.918,7.918,0,0,0,2.087-5.577,7.844,7.844,0,0,0-2.165-5.577,7.022,7.022,0,0,0-5.324-2.3,6.834,6.834,0,0,0-5.3,2.282,8.031,8.031,0,0,0-2.067,5.6A7.815,7.815,0,0,0-165.672-4.5,6.989,6.989,0,0,0-160.368-2.223ZM-144.456,0V-20.163h3V-4.212l11.973-15.951h2.925V0h-3V-15.951L-141.57,0Zm45.513.468a9.966,9.966,0,0,1-7.468-3.081,10.317,10.317,0,0,1-2.983-7.449,10.267,10.267,0,0,1,3.022-7.43,10.061,10.061,0,0,1,7.507-3.1,10.03,10.03,0,0,1,7.488,3.081,10.282,10.282,0,0,1,3,7.449,10.233,10.233,0,0,1-3.042,7.429A10.125,10.125,0,0,1-98.943.468Zm.078-2.691a6.922,6.922,0,0,0,5.324-2.262,7.918,7.918,0,0,0,2.086-5.577,7.844,7.844,0,0,0-2.164-5.577,7.022,7.022,0,0,0-5.324-2.3,6.834,6.834,0,0,0-5.3,2.282,8.032,8.032,0,0,0-2.067,5.6A7.815,7.815,0,0,0-104.169-4.5,6.989,6.989,0,0,0-98.865-2.223ZM-78.078,0V-17.511h-7.215v-2.652h17.472v2.652h-7.215V0Zm14.625,0V-20.163h3V-8.541l11.037-11.622h3.7l-8.424,8.736L-45.474,0h-3.549L-56.2-9.243-60.45-4.875V0ZM-41.34,6.24v-26.4h3v4.056q3.042-4.485,7.722-4.485a9.274,9.274,0,0,1,6.747,2.866,10.318,10.318,0,0,1,2.886,7.664,10.282,10.282,0,0,1-2.886,7.6A9.244,9.244,0,0,1-30.615.429a9.014,9.014,0,0,1-7.722-4.29V6.24Zm10.179-8.5a6.718,6.718,0,0,0,5.07-2.125A7.933,7.933,0,0,0-24.063-10.1a7.822,7.822,0,0,0-2.067-5.635A6.7,6.7,0,0,0-31.161-17.9a6.94,6.94,0,0,0-5.109,2.223,7.685,7.685,0,0,0-2.184,5.616,7.618,7.618,0,0,0,2.184,5.6A6.969,6.969,0,0,0-31.161-2.262ZM-15.444,0V-20.163h3V-12.6h5.382a10.046,10.046,0,0,1,5.733,1.5A5.112,5.112,0,0,1,.9-6.552,5.975,5.975,0,0,1-1.17-1.775,8.212,8.212,0,0,1-6.708,0Zm3-2.652h5.46a5.739,5.739,0,0,0,3.568-.975A3.373,3.373,0,0,0-2.145-6.474,3.02,3.02,0,0,0-3.452-9.107,6.275,6.275,0,0,0-7.1-10.023h-5.343ZM4.524,0V-20.163h3V0ZM19.11,0V-17.511H11.895v-2.652H29.367v2.652H22.152V0ZM33.735,0V-20.163h3V-8.541L47.775-20.163h3.7l-8.424,8.736L51.714,0H48.165L40.989-9.243,36.738-4.875V0ZM55.848,0V-20.163h3V-4.212L70.824-20.163h2.925V0h-3V-15.951L58.734,0ZM92.157,0V-20.163h3v8.7h11.622v-8.7h3V0h-3V-8.814H95.16V0ZM122.5.429a8.555,8.555,0,0,1-5.3-1.677,5.528,5.528,0,0,1-2.223-4.68,5.686,5.686,0,0,1,2.34-4.875,10.392,10.392,0,0,1,6.279-1.716,22.6,22.6,0,0,1,6.162.858v-.624a5.175,5.175,0,0,0-1.56-4.056,6.361,6.361,0,0,0-4.407-1.4,14.7,14.7,0,0,0-6.123,1.443l-.9-2.457a17.52,17.52,0,0,1,7.332-1.716q4.29,0,6.513,2.223a8.015,8.015,0,0,1,2.106,5.928V0h-2.964V-3A8.737,8.737,0,0,1,122.5.429Zm.585-2.418a7.5,7.5,0,0,0,4.758-1.521,4.733,4.733,0,0,0,1.95-3.9V-9.282a21.1,21.1,0,0,0-5.889-.858,7.355,7.355,0,0,0-4.329,1.111,3.519,3.519,0,0,0-1.56,3.022,3.466,3.466,0,0,0,1.463,2.925A5.86,5.86,0,0,0,123.084-1.989ZM154.791.156,148.356-20.9h6.006l3.354,12.675,3.939-12.753h5.109L170.742-8.19,174.174-20.9h5.889L173.55.156h-5.343L164.19-12.675,160.1.156Zm33.189,0L181.545-20.9h6.006L190.9-8.229l3.939-12.753h5.109L203.931-8.19,207.363-20.9h5.889L206.739.156H201.4l-4.017-12.831L193.284.156Zm33.189,0L214.734-20.9h6.006l3.354,12.675,3.939-12.753h5.109L237.12-8.19,240.552-20.9h5.889L239.928.156h-5.343l-4.017-12.831L226.473.156ZM247.065,0V-6.24h6.318V0Zm11.388,0V-20.9h5.928v2.964a7.657,7.657,0,0,1,6.162-3.354,6.083,6.083,0,0,1,5.889,3.315,8.747,8.747,0,0,1,6.864-3.315,6.8,6.8,0,0,1,5.207,1.97,8.036,8.036,0,0,1,1.852,5.713V0h-5.928V-11.661q0-4.251-3.471-4.251a3.315,3.315,0,0,0-2.633,1.092,4.658,4.658,0,0,0-.956,3.159V0H271.44V-11.661q0-4.251-3.471-4.251a3.315,3.315,0,0,0-2.633,1.092,4.658,4.658,0,0,0-.956,3.159V0Zm46.956.468a10.729,10.729,0,0,1-7.839-3.022,10.522,10.522,0,0,1-3.081-7.858,10.948,10.948,0,0,1,2.925-7.722,9.661,9.661,0,0,1,7.41-3.159,9.107,9.107,0,0,1,7.566,3.276A12.538,12.538,0,0,1,315-9.945q0,.468-.078,1.56H300.378a5.1,5.1,0,0,0,1.755,3.042,5.226,5.226,0,0,0,3.354,1.053,7.283,7.283,0,0,0,5.07-2.145l3.393,3A10.414,10.414,0,0,1,305.409.468ZM300.3-12.09h8.931a5.644,5.644,0,0,0-1.423-3.237,3.933,3.933,0,0,0-2.984-1.209,4.047,4.047,0,0,0-2.983,1.189A5.848,5.848,0,0,0,300.3-12.09ZM329.316.468a10.729,10.729,0,0,1-7.839-3.022,10.522,10.522,0,0,1-3.081-7.858,10.948,10.948,0,0,1,2.925-7.722,9.661,9.661,0,0,1,7.41-3.159,9.107,9.107,0,0,1,7.566,3.276,12.538,12.538,0,0,1,2.613,8.073q0,.468-.078,1.56H324.285a5.1,5.1,0,0,0,1.755,3.042,5.226,5.226,0,0,0,3.354,1.053,7.283,7.283,0,0,0,5.07-2.145l3.393,3A10.414,10.414,0,0,1,329.316.468ZM324.207-12.09h8.931a5.644,5.644,0,0,0-1.423-3.237,3.933,3.933,0,0,0-2.984-1.209,4.047,4.047,0,0,0-2.983,1.189A5.848,5.848,0,0,0,324.207-12.09ZM350.376.351a6.5,6.5,0,0,1-4.5-1.423q-1.58-1.424-1.579-4.855v-9.906h-2.5V-20.9h2.5v-5.343h5.928V-20.9h4.914v5.07H350.22V-6.9q0,2.028,1.911,2.028a6.037,6.037,0,0,0,2.925-.741V-.858A8.963,8.963,0,0,1,350.376.351ZM365.43.39A7.712,7.712,0,0,1,360.3-1.326a5.871,5.871,0,0,1-2.048-4.758,5.8,5.8,0,0,1,2.281-4.992,10.153,10.153,0,0,1,6.143-1.677,15.612,15.612,0,0,1,5.109.858v-.351q0-3.822-4.485-3.822a16.8,16.8,0,0,0-5.772,1.131l-1.482-4.524a19.967,19.967,0,0,1,8.112-1.677q4.719,0,7.059,2.34,2.262,2.262,2.262,6.669V0h-5.733V-2.262A8.074,8.074,0,0,1,365.43.39ZM367.224-3.7a5.192,5.192,0,0,0,3.354-1.034,3.232,3.232,0,0,0,1.287-2.632V-8.424a8.867,8.867,0,0,0-3.783-.78,5.167,5.167,0,0,0-3.022.761,2.534,2.534,0,0,0-1.073,2.2,2.2,2.2,0,0,0,.9,1.852A3.761,3.761,0,0,0,367.224-3.7ZM382.59,6.24V-20.9h5.928v3a7.727,7.727,0,0,1,6.513-3.393,8.977,8.977,0,0,1,6.708,2.925,11.008,11.008,0,0,1,2.808,7.956,10.929,10.929,0,0,1-2.789,7.9A8.986,8.986,0,0,1,395.031.39a8.158,8.158,0,0,1-6.513-3.12V6.24ZM393.51-4.641a4.73,4.73,0,0,0,3.627-1.618,6.021,6.021,0,0,0,1.482-4.232,5.911,5.911,0,0,0-1.482-4.153,4.73,4.73,0,0,0-3.627-1.619,4.671,4.671,0,0,0-3.607,1.619,6.07,6.07,0,0,0-1.462,4.232A5.958,5.958,0,0,0,389.9-6.26,4.671,4.671,0,0,0,393.51-4.641Zm15.4,10.881V-20.9h5.928v3a7.727,7.727,0,0,1,6.513-3.393,8.977,8.977,0,0,1,6.708,2.925,11.008,11.008,0,0,1,2.808,7.956,10.929,10.929,0,0,1-2.789,7.9A8.986,8.986,0,0,1,421.356.39a8.158,8.158,0,0,1-6.513-3.12V6.24Zm10.92-10.881a4.73,4.73,0,0,0,3.627-1.618,6.021,6.021,0,0,0,1.482-4.232,5.911,5.911,0,0,0-1.482-4.153,4.73,4.73,0,0,0-3.627-1.619,4.671,4.671,0,0,0-3.607,1.619,6.07,6.07,0,0,0-1.462,4.232,5.958,5.958,0,0,0,1.462,4.153A4.671,4.671,0,0,0,419.835-4.641ZM434.616,0V-6.24h6.318V0ZM446,0V-28.47h5.928V-13.3l6.942-7.605h7.1l-7.956,8.229L466.245,0h-6.786L454-8.541l-2.067,2.184V0Zm31.473,6.318a19.478,19.478,0,0,1-9.243-2.184l2.028-4.446A14.193,14.193,0,0,0,477.321,1.6q5.967,0,5.967-5.694V-5.109A9.948,9.948,0,0,1,480.3-2.554a8.1,8.1,0,0,1-3.842.838,9.05,9.05,0,0,1-6.571-2.652,9.579,9.579,0,0,1-2.711-7.176,9.426,9.426,0,0,1,2.73-7.118,9.1,9.1,0,0,1,6.552-2.632,8.844,8.844,0,0,1,6.747,3.12V-20.9h5.928V-4.719q0,5.577-2.652,8.229Q483.678,6.318,477.477,6.318Zm.7-12.948a5.139,5.139,0,0,0,3.647-1.365,4.632,4.632,0,0,0,1.462-3.549,4.541,4.541,0,0,0-1.462-3.471,5.139,5.139,0,0,0-3.647-1.365,5.07,5.07,0,0,0-3.627,1.365,4.663,4.663,0,0,0-1.443,3.549,4.554,4.554,0,0,0,1.443,3.49A5.111,5.111,0,0,0,478.179-6.63Z" transform="translate(966 290)"/>
  </g>
</svg>
